<svg version="1" xmlns="http://www.w3.org/2000/svg" width="354.667" height="354.667" viewBox="0 0 266 266"><path d="M114 2.1C95 5.7 83.4 9.5 70.3 16.5 33.7 35.9 8.3 71.6 1.5 113c-1.5 9.6-1.3 34.8.3 42 .6 2.5 1.4 6.1 1.7 8 1 5.6 6.5 20.9 10.2 28.5 12.3 24.5 33 45.7 57.2 58.4 9.2 4.8 24.6 10.5 31.5 11.6 1.7.3 3.8.8 4.7 1.1 4.3 1.3 10.6 1.7 24.4 1.8 16.1.1 20-.4 34-3.7 5.8-1.4 18.4-6.1 24.8-9.3 25-12.5 47.4-34.8 59.7-59.4 5.7-11.4 8.8-20.8 12.5-38.5 1.1-5 1.4-30.6.4-37.3-1.4-9.8-1.7-11.3-4.4-20.8-3.3-11.4-10-25.4-17.2-36.3-6.6-9.9-22.8-26.6-32.4-33.4-16.1-11.4-36.9-20-56.4-23.2-6.3-1-33.5-1.3-38.5-.4zm26 114.3c7.2 3.1 11.3 8.9 11.6 16.5.1 3.1-.1 6-.4 6.6-.4.5-.7 1.5-.8 2.2-.2 1.4-3.7 6.2-4.5 6.3-.3 0-1.6.9-2.8 2-4.6 3.9-16.4 3.5-21.6-.8-14.2-11.8-6.1-34.6 12-34 2.2.1 5.1.7 6.5 1.2z"/></svg>