<?xml version="1.0" standalone="no"?>
<!DOCTYPE svg PUBLIC "-//W3C//DTD SVG 20010904//EN"
 "http://www.w3.org/TR/2001/REC-SVG-20010904/DTD/svg10.dtd">
<svg version="1.0" xmlns="http://www.w3.org/2000/svg"
 width="266.000000pt" height="266.000000pt" viewBox="0 0 266.000000 266.000000"
 preserveAspectRatio="xMidYMid meet">
<metadata>
Created by potrace 1.11, written by Peter Selinger 2001-2013
</metadata>
<g transform="translate(0.000000,266.000000) scale(0.100000,-0.100000)"
fill="#000000" stroke="none">
<path d="M1140 2639 c-190 -36 -306 -74 -437 -144 -366 -194 -620 -551 -688
-965 -15 -96 -13 -348 3 -420 6 -25 14 -61 17 -80 10 -56 65 -209 102 -285
123 -245 330 -457 572 -584 92 -48 246 -105 315 -116 17 -3 38 -8 47 -11 43
-13 106 -17 244 -18 161 -1 200 4 340 37 58 14 184 61 248 93 250 125 474 348
597 594 57 114 88 208 125 385 11 50 14 306 4 373 -14 98 -17 113 -44 208 -33
114 -100 254 -172 363 -66 99 -228 266 -324 334 -161 114 -369 200 -564 232
-63 10 -335 13 -385 4z m260 -1143 c72 -31 113 -89 116 -165 1 -31 -1 -60 -4
-66 -4 -5 -7 -15 -8 -22 -2 -14 -37 -62 -45 -63 -3 0 -16 -9 -28 -20 -46 -39
-164 -35 -216 8 -142 118 -61 346 120 340 22 -1 51 -7 65 -12z"/>
</g>
</svg>
